{"title":"t's a Mad, Mad, Mad World II aka Fu gui zai po ren (1988)","uid":14159507,"size":1212781292,"categoryP":"video","categoryS":"movies","magnet":"?xt=urn:btih:a7db8afbc2d7f02eba53b846e8c05029ed2820d6&amp;dn=t%27s+a+Mad%2C+Mad%2C+Mad+World+II+aka+Fu+gui+zai+po+ren+%281988%29&amp;tr=udp%3A%2F%2Ftracker.leechers-paradise.org%3A6969&amp;tr=udp%3A%2F%2Fzer0day.ch%3A1337&amp;tr=udp%3A%2F%2Fopen.demonii.com%3A1337&amp;tr=udp%3A%2F%2Ftracker.coppersurfer.tk%3A6969&amp;tr=udp%3A%2F%2Fexodus.desync.com%3A6969","seeders":0,"leechers":0,"uploader":null,"files":1,"time":1459702897,"description":"After losing their lottery winnings during the bank's closure, the Biu family's luck changes again as Bill's job promotion and daughters' education and work careers sent them and the entire family to lead their new lives in Canada, where new misadventures await.\r\n\r\n \nhttps://www.themoviedb.org/search?query=It%27s+a+Mad%2C+Mad%2C+Mad+World+2+\r\n\r\n\r\nFormat                                   : AVI\r\nFormat/Info                              : Audio Video Interleave\r\nFormat profile                           : OpenDML\r\nFile size                                : 1.13 GiB\r\nDuration                                 : 1h 28mn\r\nOverall bit rate                         : 1 834 Kbps\r\nWriting application                      : Lavf51.12.1\r\n\r\nVideo\r\nID                                       : 0\r\nFormat                                   : MPEG-4 Visual\r\nCodec ID                                 : DIV3\r\nCodec ID/Hint                            : DivX 3 Low\r\nDuration                                 : 1h 28mn\r\nBit rate                                 : 1 498 Kbps\r\nWidth                                    : 608 pixels\r\nHeight                                   : 336 pixels\r\nDisplay aspect ratio                     : 16:9\r\nFrame rate                               : 24.390 fps\r\nColor space                              : YUV\r\nChroma subsampling                       : 4:2:0\r\nBit depth                                : 8 bits\r\nCompression mode                         : Lossy\r\nBits/(Pixel*Frame)                       : 0.301\r\nStream size                              : 945 MiB (82%)\r\n\r\nAudio\r\nID                                       : 1\r\nFormat                                   : MPEG Audio\r\nFormat version                           : Version 1\r\nFormat profile                           : Layer 3\r\nMode                                     : Joint stereo\r\nMode extension                           : MS Stereo\r\nCodec ID                                 : 55\r\nCodec ID/Hint                            : MP3\r\nDuration                                 : 1h 28mn\r\nBit rate mode                            : Constant\r\nBit rate                                 : 320 Kbps\r\nChannel(s)                               : 2 channels\r\nSampling rate                            : 44.1 KHz\r\nCompression mode                         : Lossy\r\nStream size                              : 202 MiB (17%)\r\nAlignment                                : Aligned on interleaves\r\nInterleave, duration                     : 26 ms (0.64 video frame)\r\nInterleave, preload duration             : 26 ms\r\nWriting library                          : LAME3.97","torrent":{"xt":"urn:btih:a7db8afbc2d7f02eba53b846e8c05029ed2820d6","amp;dn":"t%27s+a+Mad%2C+Mad%2C+Mad+World+II+aka+Fu+gui+zai+po+ren+%281988%29","amp;tr":["udp%3A%2F%2Ftracker.leechers-paradise.org%3A6969","udp%3A%2F%2Fzer0day.ch%3A1337","udp%3A%2F%2Fopen.demonii.com%3A1337","udp%3A%2F%2Ftracker.coppersurfer.tk%3A6969","udp%3A%2F%2Fexodus.desync.com%3A6969"],"infoHash":"a7db8afbc2d7f02eba53b846e8c05029ed2820d6","infoHashBuffer":{"type":"Buffer","data":[167,219,138,251,194,215,240,46,186,83,184,70,232,192,80,41,237,40,32,214]},"announce":[],"urlList":[]}}